<svg id="Capa_1" fill="#2a2f71" height="80" enable-background="new 0 0 512.494 512.494" viewBox="0 0 512.494 512.494" xmlns="http://www.w3.org/2000/svg"><g><path d="m243.827 198.173c-4.143 0-7.5 3.357-7.5 7.5v4.923c0 11.375 9.255 20.63 20.63 20.63s20.629-9.255 20.629-20.63v-4.923c0-4.143-3.357-7.5-7.5-7.5s-7.5 3.357-7.5 7.5v4.923c0 3.104-2.525 5.63-5.629 5.63s-5.63-2.525-5.63-5.63v-4.923c0-4.142-3.357-7.5-7.5-7.5z"/><path d="m256.352 299.817c21.406 0 38.821-17.415 38.821-38.82v-1.384c0-6.286-5.114-11.4-11.4-11.4h-54.841c-6.286 0-11.4 5.114-11.4 11.4v1.384c0 21.405 17.415 38.82 38.82 38.82zm23.719-36.604c-1.121 12.1-11.331 21.604-23.719 21.604s-22.597-9.505-23.718-21.604z"/><path d="m211.242 194.332c4.143 0 7.5-3.357 7.5-7.5v-5.619c0-4.143-3.357-7.5-7.5-7.5s-7.5 3.357-7.5 7.5v5.619c0 4.142 3.358 7.5 7.5 7.5z"/><path d="m302.462 194.332c4.143 0 7.5-3.357 7.5-7.5v-5.619c0-4.143-3.357-7.5-7.5-7.5s-7.5 3.357-7.5 7.5v5.619c0 4.142 3.358 7.5 7.5 7.5z"/><path d="m369.515 365.393-30.885-12.601c6.143-8.167 8.683-18.579 6.956-28.667-1.759-10.273-7.795-19.399-16.561-25.038l-2.116-1.361c5.042-5.723 9.494-12.009 13.23-18.794 1.997-3.629.676-8.189-2.953-10.188-3.63-1.997-8.189-.674-10.188 2.953-10.64 19.326-27.94 34.028-48.725 41.4l-.731.261c-13.705 4.859-28.788 4.829-42.468-.086-35.596-12.794-59.512-46.803-59.512-84.626v-84.689c0-.178.077-.346.212-.463l34.408-29.738.302 6.024c.14 2.795 1.823 5.279 4.368 6.444 2.544 1.167 5.525.816 7.732-.904l26.25-20.459.603 3.927c.389 2.53 2.04 4.688 4.382 5.723 2.343 1.036 5.05.804 7.181-.613l25.083-16.66.841 7.992c.272 2.587 1.866 4.849 4.211 5.975 2.345 1.127 5.104.96 7.296-.445l9.291-5.956v8.19c0 2.132.907 4.163 2.495 5.586l27.719 24.835c.13.116.204.282.204.457v84.477c0 5.112-.455 10.315-1.353 15.464-.711 4.081 2.021 7.966 6.101 8.677 4.084.708 7.965-2.021 8.677-6.101.861-4.944 1.352-9.934 1.505-14.881h1.674c14.529 0 26.35-11.82 26.35-26.35v-10.033c0-3.786-.809-7.385-2.253-10.642l19.724-54.535c1.108-3.064.111-6.493-2.467-8.485l-10.04-7.757v-22.769c0-4.143-3.357-7.5-7.5-7.5h-2.929c-1.34-14.951-6.687-29.112-15.663-41.33-2.452-3.339-7.146-4.055-10.484-1.604-3.338 2.452-4.056 7.146-1.604 10.484 8.561 11.652 13.085 25.466 13.085 39.949 0 4.143 3.357 7.5 7.5 7.5h2.595v18.951c0 2.323 1.076 4.515 2.914 5.935l8.627 6.666-15.201 42.031c-3.758-2.067-8.07-3.245-12.654-3.245h-1.604v-24.903c0-4.433-1.894-8.671-5.194-11.629l-25.224-22.6v-18.555c0-2.742-1.496-5.265-3.901-6.58-2.406-1.316-5.338-1.214-7.646.266l-10.604 6.799-.865-8.216c-.274-2.608-1.893-4.885-4.266-6.001-2.376-1.117-5.159-.913-7.343.539l-25.613 17.013-.761-4.957c-.403-2.63-2.171-4.85-4.644-5.832-2.475-.985-5.281-.581-7.38 1.055l-24.954 19.449-.349-6.963c-.143-2.863-1.906-5.395-4.542-6.521-2.636-1.125-5.684-.653-7.853 1.223l-46.035 39.787c-3.434 2.968-5.403 7.273-5.403 11.812v24.817h-1.604c-4.583 0-8.896 1.179-12.654 3.245l-15.201-42.031 8.627-6.666c1.838-1.42 2.914-3.611 2.914-5.935v-18.953h2.595c4.143 0 7.5-3.357 7.5-7.5 0-37.255 30.309-67.563 67.563-67.563h.715c3.996 0 7.263-3.126 7.487-7.065l26.846 5.484c.99.201 2.012.201 3.002 0l26.847-5.484c.225 3.939 3.491 7.065 7.487 7.065h.715c11.496 0 22.859 2.951 32.863 8.535 3.617 2.018 8.185.724 10.204-2.894 2.019-3.617.724-8.186-2.894-10.204-10.263-5.729-21.692-9.191-33.403-10.158-.146-2.568-1.354-4.944-3.361-6.583-2.144-1.751-4.933-2.436-7.642-1.883l-32.317 6.602-32.316-6.602c-2.709-.552-5.499.133-7.643 1.883-2.007 1.639-3.213 4.013-3.359 6.578-39.895 3.252-71.854 34.992-75.455 74.789h-2.933c-4.143 0-7.5 3.357-7.5 7.5v22.769l-10.04 7.757c-2.578 1.992-3.575 5.421-2.467 8.485l19.723 54.535c-1.444 3.257-2.253 6.855-2.253 10.642v10.033c0 14.529 11.82 26.35 26.35 26.35h1.661c.681 24.867 10.196 48.163 25.972 66.213l-2.125 1.367c-8.766 5.639-14.802 14.765-16.561 25.038-1.705 9.96.751 20.233 6.725 28.353l-31.654 12.916c-12.161 4.961-23.386 11.839-33.361 20.445-3.136 2.706-3.485 7.441-.779 10.578 1.483 1.719 3.576 2.601 5.682 2.601 1.735 0 3.479-.599 4.896-1.821 8.741-7.541 18.575-13.568 29.229-17.914l35.515-14.491 40.387 52.026h-9.558c-13.073 0-23.71 10.637-23.71 23.71v64.026c0 4.143 3.357 7.5 7.5 7.5s7.5-3.357 7.5-7.5v-43.763h97.938v43.763c0 4.143 3.357 7.5 7.5 7.5s7.5-3.357 7.5-7.5v-64.026c0-13.073-10.637-23.71-23.71-23.71h-6.558l40.147-51.716 34.755 14.18c40.14 16.378 66.076 54.972 66.076 98.323v26.949c0 4.143 3.357 7.5 7.5 7.5s7.5-3.357 7.5-7.5v-26.949c-.001-49.476-29.601-93.521-75.411-112.213zm-14.77-181.618c6.258 0 11.35 5.092 11.35 11.35v10.033c0 6.258-5.092 11.35-11.35 11.35h-1.604v-32.732h1.604zm-207.135 21.383v-10.033c0-6.258 5.092-11.35 11.35-11.35h1.604v32.732h-1.604c-6.259 0-11.35-5.091-11.35-11.349zm183.191 121.499c1.066 6.226-.479 12.402-4.354 17.392l-2.225 2.866-12.17-4.965v-30.338c1.315-1.008 2.609-2.044 3.874-3.113l4.983 3.205c5.314 3.416 8.827 8.726 9.892 14.953zm-74.372 5.323c8.851 0 17.705-1.495 26.137-4.486l.731-.261c4.753-1.686 9.343-3.711 13.756-6.031v24.366c0 1.689.457 3.287 1.243 4.69-25.474 16.978-58.589 16.149-83.201-2.2.214-.801.345-1.632.345-2.491v-24.715c4.635 2.521 9.496 4.716 14.563 6.538 8.517 3.06 17.469 4.59 26.426 4.59zm-69.384 12.068c-3.874-4.989-5.42-11.166-4.354-17.392 1.065-6.227 4.578-11.537 9.891-14.954l4.946-3.181c.955.815 1.926 1.612 2.912 2.394v31.033l-11.41 4.656zm117.17 96.48v5.264h-97.938v-5.264c0-4.803 3.907-8.71 8.71-8.71h80.518c4.803 0 8.71 3.907 8.71 8.71zm-34.257-23.71h-26.422l-44.955-57.91 3.975-1.622.093.077c15.157 12.514 34.327 19.608 53.979 19.978.54.01 1.077.015 1.617.015 19.097 0 37.887-6.344 53.074-17.953l1.324-1.013 2.03.828z"/><path d="m97.581 409.308c-3.471-2.258-8.117-1.276-10.378 2.194-12.845 19.734-19.635 42.593-19.635 66.103v26.948c0 4.143 3.357 7.5 7.5 7.5s7.5-3.357 7.5-7.5v-26.948c0-20.598 5.95-40.626 17.207-57.919 2.259-3.472 1.277-8.118-2.194-10.378z"/><path d="m143.781 453.586c-4.143 0-7.5 3.357-7.5 7.5v43.468c0 4.143 3.357 7.5 7.5 7.5s7.5-3.357 7.5-7.5v-43.468c0-4.143-3.358-7.5-7.5-7.5z"/><path d="m367.712 453.586c-4.143 0-7.5 3.357-7.5 7.5v43.469c0 4.143 3.357 7.5 7.5 7.5s7.5-3.357 7.5-7.5v-43.469c0-4.143-3.357-7.5-7.5-7.5z"/><path d="m255.746 473.802c-17.199 0-31.191 13.992-31.191 31.191 0 4.143 3.357 7.5 7.5 7.5s7.5-3.357 7.5-7.5c0-8.928 7.264-16.191 16.191-16.191s16.191 7.264 16.191 16.191c0 4.143 3.357 7.5 7.5 7.5s7.5-3.357 7.5-7.5c.001-17.198-13.991-31.191-31.191-31.191z"/></g></svg>