<svg id="Capa_1" enable-background="new 0 0 512 512" fill="#8EC641" height="15" width="15" viewBox="0 0 512 512" xmlns="http://www.w3.org/2000/svg"><g><g id="Export-_x28_Final---R1_x29_"><g id="add_1_"><path id="outline" d="m256 0c141.385 0 256 114.615 256 256s-114.615 256-256 256-256-114.615-256-256 114.615-256 256-256zm0 36.571c-121.187 0-219.429 98.242-219.429 219.429s98.242 219.429 219.429 219.429 219.429-98.242 219.429-219.429-98.242-219.429-219.429-219.429z"/><path id="plus" d="m254.133 116.759c9.762 0 17.738 7.651 18.259 17.283l.027 1.003-.002 103.789h104.558c10.099 0 18.286 8.187 18.286 18.286 0 9.762-7.651 17.738-17.283 18.259l-1.003.027h-104.558l.002 101.57c0 10.099-8.187 18.286-18.286 18.286-9.762 0-17.738-7.651-18.259-17.283l-.027-1.003-.002-101.57h-100.8c-10.099 0-18.287-8.187-18.287-18.286 0-9.762 7.651-17.738 17.283-18.259l1.003-.027h100.8l.002-103.789c.002-10.099 8.188-18.286 18.287-18.286z"/></g></g></g></svg>