<svg id="Capa_1" enable-background="new 0 0 512.013 512.013" fill="#8EC641" height="50" viewBox="0 0 512.013 512.013"  xmlns="http://www.w3.org/2000/svg"><g><g><path d="m55.927 505.334c-17.218-25.826-29.88-31.163-55.536-142.348-2.322-10.063 6.014-19.462 16.338-18.273 52.207 6.035 97.897-2.638 136.117-25.785-87.53-74.08-103.658-200.576-88.846-274.558 2.591-12.944 19.522-16.461 27.043-5.592 46.593 67.328 178.023 198.197 271.108 123.191 32.68-26.781 63.028-37.664 90.202-32.345 27.629 5.407 43.733 24.374 57.359 48.013 5.329 8.488.98 19.743-8.69 22.428-60.862 16.907-63.33 28.113-86.014 96.82-41.439 125.534-91.206 148.539-191.094 147.403-32.721-.374-60.986-.694-83.236 15.621-20.737 15.109-41.139 31.587-62.958 48.865-6.87 5.438-16.93 3.854-21.793-3.44zm453.657-327.895c.026.04.053.081.078.122-.027-.045-.054-.085-.078-.122z"/></g><path d="m321.438 150.624c-38.58 12.73-85.28-10.61-125.96-43.57 7.25-30.18 11.92-58.42 13.14-92.58.44-12.32 14.78-18.86 24.38-11.16 47.78 38.35 80.46 89.25 88.44 147.31z"/></g></svg>