<svg id="Capa_1" enable-background="new 0 0 512 512" fill="#8EC641" height="50" viewBox="0 0 512 512" xmlns="http://www.w3.org/2000/svg"><g><path d="m346 84.777v32.647l60 43.076v-75.723c30.795-2.543 55-28.325 55-59.777v-10c0-8.284-6.716-15-15-15h-10c-33.084 0-60 26.916-60 60 0-33.084-26.916-60-60-60h-10c-8.284 0-15 6.716-15 15v10c0 31.452 24.205 57.233 55 59.777z"/><path d="m74.747 293.729 181.253-130.126 181.253 130.126c22.461 16.125 53.747.073 53.747-27.578 0-4.832-2.327-9.367-6.252-12.185l-202.504-145.384c-15.696-11.269-36.79-11.27-52.488 0l-202.504 145.384c-3.925 2.818-6.252 7.354-6.252 12.185 0 27.651 31.286 43.704 53.747 27.578z"/><circle cx="256" cy="297" r="15"/><path d="m221 402h70v110h-70z"/><path d="m497 482h-76v-163.008l-165-118.458-165 118.458v163.008h-76c-8.284 0-15 6.716-15 15s6.716 15 15 15h176v-125c0-8.284 6.716-15 15-15h100c8.284 0 15 6.716 15 15v125h176c8.284 0 15-6.716 15-15s-6.716-15-15-15zm-241-140c-24.813 0-45-20.187-45-45s20.187-45 45-45 45 20.187 45 45-20.187 45-45 45z"/></g></svg>