<svg id="Capa_1" fill="#8EC641" enable-background="new 0 0 512 512" height="50" viewBox="0 0 512 512" width="512" xmlns="http://www.w3.org/2000/svg"><g><path d="m256 221c30.327 0 55-24.673 55-55v-40c0-30.327-24.673-55-55-55s-55 24.673-55 55v40c0 30.327 24.673 55 55 55z"/><path d="m316.08 226.071c-15.391 15.394-36.643 24.929-60.08 24.929s-44.689-9.535-60.08-24.929c-40.091 21.511-67.42 63.836-67.42 112.429v87.5c0 8.284 6.716 15 15 15h225c8.284 0 15-6.716 15-15v-87.5c0-48.593-27.328-90.918-67.42-112.429zm-30.08 117.929h-15v15c0 8.284-6.716 15-15 15s-15-6.716-15-15v-15h-15c-8.284 0-15-6.716-15-15s6.716-15 15-15h15v-15c0-8.284 6.716-15 15-15s15 6.716 15 15v15h15c8.284 0 15 6.716 15 15s-6.716 15-15 15z"/><path d="m407 231c24.813 0 45-20.187 45-45v-28c0-24.813-20.187-45-45-45s-45 20.187-45 45v28c0 24.813 20.187 45 45 45z"/><path d="m105 231c24.813 0 45-20.187 45-45v-28c0-24.813-20.187-45-45-45s-45 20.187-45 45v28c0 24.813 20.187 45 45 45z"/><path d="m462.194 236.716c-13.717 14.916-33.38 24.284-55.194 24.284-5.055 0-9.986-.524-14.763-1.482 13.684 23.572 21.263 50.691 21.263 78.982v67.5h83.5c8.284 0 15-6.716 15-15v-65c0-37.663-19.936-70.752-49.806-89.284z"/><path d="m49.806 236.716c-29.87 18.532-49.806 51.621-49.806 89.284v65c0 8.284 6.716 15 15 15h83.5v-67.5c0-28.291 7.579-55.41 21.263-78.982-4.777.958-9.708 1.482-14.763 1.482-21.814 0-41.477-9.368-55.194-24.284z"/></g></svg>