<svg id="Capa_1" fill="#D1E8B3" enable-background="new 0 0 510 510" height="50" viewBox="0 0 510 510" xmlns="http://www.w3.org/2000/svg"><g><path d="m81.507 427.5c-13.29 13.539-21.507 32.075-21.507 52.5v30h150v-30c0-20.425-8.217-38.961-21.507-52.5-29.424 29.976-77.51 30.028-106.986 0z"/><circle cx="135" cy="375" r="45"/><path d="m321.507 427.5c-13.29 13.539-21.507 32.075-21.507 52.5v30h150v-30c0-20.425-8.217-38.961-21.507-52.5-29.424 29.976-77.51 30.028-106.986 0z"/><circle cx="375" cy="375" r="45"/><path d="m150 120c0-16.542-13.458-30-30-30s-30 13.458-30 30v15h60z"/><path d="m0 270h60v54.271l108.541-54.271h71.459v-270h-240zm60-150c0-33.084 26.916-60 60-60s60 26.916 60 60v90h-30v-45h-60v45h-30z"/><path d="m390 155.58c9.606-9.306 15-21.73 15-35.58h-30c0 13.85 5.394 26.273 15 35.58z"/><path d="m270 0v270h71.459l108.541 54.271v-54.271h60v-270zm195 120h-30c0 19.067-6.616 36.737-18.322 50.797l27.845 11.463-11.42 27.741c-36.6-15.192-37.179-15.042-43.103-18.058-6.121 3.117-7.728 3.374-43.103 18.058l-11.42-27.741 27.845-11.463c-11.706-14.06-18.322-31.73-18.322-50.797h-30v-30h60v-30h30v30h60z"/></g></svg>