<svg id="Capa_1" enable-background="new 0 0 512.333 512.333" fill="#8EC641" height="50" viewBox="0 0 512.333 512.333"  xmlns="http://www.w3.org/2000/svg"><path d="m499.708 251.165c-7.916-7.907-18.44-12.384-29.624-12.594l-11.259-.212-2.939-10.87c-17.38-64.269-64.297-114.677-123.707-138.209 7.121 12.628 11.191 27.194 11.191 42.695 0 48.084-39.12 87.204-87.204 87.204s-87.204-39.12-87.204-87.204h30c0 31.542 25.662 57.204 57.204 57.204s57.204-25.662 57.204-57.204-25.662-57.204-57.204-57.204c-2.916 0-5.821.062-8.714.183h-2.709c-28.144-.079-51.016-22.995-51.016-51.156h-30c0 19.378 6.836 37.185 18.212 51.156h-14.524c-28.21 0-51.16-22.95-51.16-51.16h-30c0 39.251 28.01 72.078 65.09 79.556-45.535 26.788-80.44 70.668-94.899 124.139l-2.939 10.87-11.259.212c-11.184.21-21.708 4.687-29.635 12.605-8.13 8.138-12.613 18.967-12.613 30.479 0 23.316 18.954 42.644 42.25 43.084l11.258.213 2.939 10.869c24.316 89.918 106.443 152.718 199.719 152.718s175.403-62.8 199.719-152.718l2.939-10.869 11.258-.213c23.297-.44 42.25-19.768 42.25-43.084.001-11.512-4.482-22.341-12.624-30.49zm-340.387 13.503c-13.089 0-23.738 10.649-23.738 23.738h-30c0-29.631 24.107-53.738 53.738-53.738s53.738 24.106 53.738 53.738h-30c.001-13.089-10.648-23.738-23.738-23.738zm96.846 154.383c-32.568 0-63.098-17.452-79.676-45.546l25.837-15.246c11.208 18.993 31.838 30.792 53.839 30.792s42.631-11.799 53.839-30.792l25.837 15.246c-16.578 28.094-47.108 45.546-79.676 45.546zm120.583-130.645c0-13.089-10.649-23.738-23.738-23.738s-23.738 10.649-23.738 23.738h-30c0-29.631 24.107-53.738 53.738-53.738s53.738 24.106 53.738 53.738z"/></svg>