<?xml version="1.0" encoding="iso-8859-1"?>
<!-- Generator: Adobe Illustrator 17.1.0, SVG Export Plug-In . SVG Version: 6.00 Build 0)  -->
<!DOCTYPE svg PUBLIC "-//W3C//DTD SVG 1.1//EN" "http://www.w3.org/Graphics/SVG/1.1/DTD/svg11.dtd">
<svg version="1.1" id="Capa_1" xmlns="http://www.w3.org/2000/svg" xmlns:xlink="http://www.w3.org/1999/xlink" x="0px" y="0px"
	 viewBox="0 0 490 490" fill="#8EC641" style="enable-background:new 0 0 490 490;" xml:space="preserve">
<g>
	<g>
		<path d="M178.24,159.475c-1.77,11.621-2.802,23.902-3.04,36.52h43.757v-33.449c-13.335-0.209-26.394-1.154-38.895-2.818
			C179.452,159.645,178.847,159.559,178.24,159.475z"/>
		<path d="M189.631,287.32c9.14,3.748,19.007,6.072,29.326,6.697v-41.912c-13.315,0.221-26.402,1.217-38.75,2.918
			C182.572,266.766,185.735,277.654,189.631,287.32z"/>
		<path d="M178.236,243.844c0.606-0.086,1.214-0.17,1.825-0.252c12.502-1.666,25.561-2.611,38.895-2.82v-33.447H175.2
			C175.438,219.951,176.469,232.229,178.236,243.844z"/>
		<path d="M180.212,148.295c12.347,1.701,25.432,2.695,38.745,2.916v-41.912c-10.319,0.627-20.186,2.951-29.327,6.697
			C185.738,125.66,182.577,136.553,180.212,148.295z"/>
		<path d="M296.202,143.084c-6.192-7.555-13.555-14.115-21.808-19.402c2.284,7.184,4.233,14.832,5.829,22.838
			C285.764,145.521,291.107,144.375,296.202,143.084z"/>
		<path d="M365.91,40.758H83.335c-11.681,0-21.15,9.471-21.15,21.15V468.85c0,11.682,9.47,21.15,21.15,21.15H365.91
			c11.681,0,21.15-9.469,21.15-21.15V61.908C387.061,50.229,377.591,40.758,365.91,40.758z M320.497,416.605H128.808
			c-4.412,0-7.988-3.576-7.988-7.988c0-4.412,3.576-7.988,7.988-7.988h191.689c4.412,0,7.988,3.576,7.988,7.988
			C328.485,413.029,324.909,416.605,320.497,416.605z M320.497,372.531H128.808c-4.412,0-7.988-3.576-7.988-7.988
			s3.576-7.988,7.988-7.988h191.689c4.412,0,7.988,3.576,7.988,7.988S324.909,372.531,320.497,372.531z M320.321,242.088
			c-5.231,12.369-12.72,23.476-22.257,33.014c-9.536,9.535-20.643,17.023-33.012,22.256c-12.809,5.416-26.411,8.164-40.431,8.164
			c-14.019,0-27.621-2.748-40.43-8.164c-12.368-5.232-23.476-12.721-33.012-22.256c-9.537-9.537-17.025-20.645-22.257-33.014
			c-5.417-12.809-8.164-26.41-8.164-40.43s2.747-27.621,8.164-40.43c5.231-12.369,12.72-23.475,22.257-33.012
			c9.536-9.537,20.644-17.025,33.012-22.256c12.809-5.418,26.411-8.166,40.43-8.166c14.02,0,27.622,2.748,40.431,8.166
			c12.368,5.23,23.476,12.719,33.012,22.256c9.537,9.537,17.025,20.643,22.257,33.012c5.417,12.809,8.164,26.41,8.164,40.43
			S325.738,229.279,320.321,242.088z"/>
		<path d="M163.868,207.324h-31.605c0.954,15.727,5.854,30.404,13.721,43.055c6.634-1.832,13.678-3.422,21.072-4.754
			C165.19,233.416,164.109,220.539,163.868,207.324z"/>
		<path d="M167.059,157.693c-7.395-1.332-14.441-2.922-21.075-4.756c-7.866,12.652-12.767,27.33-13.721,43.057h31.605
			C164.11,182.787,165.192,169.908,167.059,157.693z"/>
		<path d="M153.043,260.234c6.192,7.553,13.552,14.111,21.804,19.398c-2.284-7.184-4.233-14.83-5.83-22.834
			C163.48,257.797,158.137,258.943,153.043,260.234z"/>
		<path d="M153.043,143.084c5.095,1.291,10.438,2.438,15.979,3.436c1.596-8.006,3.545-15.654,5.829-22.838
			C166.598,128.969,159.235,135.529,153.043,143.084z"/>
		<path d="M282.187,245.625c7.395,1.332,14.441,2.922,21.075,4.754c7.866-12.65,12.767-27.328,13.721-43.055h-31.605
			C285.136,220.529,284.053,233.41,282.187,245.625z"/>
		<path d="M282.187,157.693c1.866,12.215,2.949,25.094,3.19,38.301h31.605c-0.954-15.727-5.854-30.406-13.721-43.057
			C296.628,154.771,289.582,156.361,282.187,157.693z"/>
		<path d="M274.395,279.635c8.253-5.287,15.614-11.846,21.808-19.4c-5.095-1.291-10.439-2.44-15.979-3.436
			C278.628,264.805,276.679,272.451,274.395,279.635z"/>
		<path d="M269.184,159.727c-12.502,1.664-25.561,2.609-38.895,2.818v33.449h43.757c-0.238-12.617-1.27-24.898-3.04-36.52
			C270.398,159.559,269.794,159.645,269.184,159.727z"/>
		<path d="M259.615,115.996c-9.14-3.746-19.008-6.07-29.327-6.697v41.912c13.314-0.221,26.398-1.215,38.744-2.916
			C266.668,136.553,263.507,125.66,259.615,115.996z"/>
		<path d="M230.288,294.018c10.318-0.625,20.188-2.949,29.327-6.697c3.892-9.664,7.053-20.557,9.417-32.297
			c-12.346-1.701-25.43-2.697-38.744-2.918V294.018z"/>
		<path d="M230.288,240.771c13.335,0.209,26.394,1.154,38.895,2.82c0.61,0.082,1.216,0.166,1.822,0.25
			c1.77-11.619,2.802-23.9,3.04-36.518h-43.757V240.771z"/>
	</g>
	<path d="M404.825,0H122.248c-6.066,0-11.789,2.342-16.113,6.596c-4.317,4.246-6.757,9.918-6.867,15.969
		c-0.009,0.494,0.181,0.971,0.526,1.324c0.347,0.351,0.82,0.551,1.314,0.551h282.237c11.046,0,20.032,8.986,20.032,20.031v406.6
		c0,0.494,0.198,0.969,0.551,1.314c0.345,0.338,0.808,0.527,1.29,0.527c0.011,0,0.023,0,0.033,0
		c6.052-0.111,11.723-2.551,15.969-6.867c4.253-4.324,6.595-10.047,6.595-16.113V22.99C427.815,10.314,417.502,0,404.825,0z"/>
</g>
<g>
</g>
<g>
</g>
<g>
</g>
<g>
</g>
<g>
</g>
<g>
</g>
<g>
</g>
<g>
</g>
<g>
</g>
<g>
</g>
<g>
</g>
<g>
</g>
<g>
</g>
<g>
</g>
<g>
</g>
</svg>
