<svg id="Layer_1" fill="#D1E8B3" enable-background="new 0 0 511.828 511.828" height="512" viewBox="0 0 511.828 511.828" width="512" xmlns="http://www.w3.org/2000/svg"><g><path d="m186.314 299.204h-11.541v-50.36c-3.904.404-16.523 1.717-18 1.861v48.498h-49.751v-52.629c0-3.134 2.54-5.674 5.674-5.674h18.316c-4.399-4.75-7.354-10.912-8.073-17.848-.005-.051-.007-.101-.012-.152h-10.231c-13.075 0-23.674 10.599-23.674 23.674v52.629h-11.54c-9.711 0-17.584 7.872-17.584 17.584v165.863c0 9.711 7.873 17.584 17.584 17.584h8.064v5.879c0 3.156 2.559 5.715 5.715 5.715h8.276c3.156 0 5.715-2.559 5.715-5.715v-5.879h53.295v5.879c0 3.156 2.559 5.715 5.715 5.715h8.276c3.156 0 5.715-2.559 5.715-5.715v-5.879h8.064c9.711 0 17.584-7.872 17.584-17.584v-165.862c-.003-9.712-7.876-17.584-17.587-17.584z"/><circle cx="315.504" cy="42.358" r="42.358"/><path d="m442.569 325.055h-3.574v-26.275c7.472-5.165 10.84-14.879 7.576-23.807-.336-.917-33.707-92.221-48.404-134.985-16.045-46.689-46.728-40.881-48.698-41.583-14.252 0-53.886 0-69.37 0-21.875 0-37.774 13.991-47.257 41.583-3.925 11.421-13.115 37.24-18.591 52.586l-62.584 6.49c-11.228 1.165-19.385 11.21-18.221 22.437 1.167 11.255 11.236 19.383 22.437 18.221l75.391-7.818c7.821-.811 14.484-6.038 17.134-13.441.282-.785 3.107-8.679 6.767-18.947l-5.743 35.497-15.327 94.73c-1.205 6.956 4.178 13.306 11.187 13.306h15.87v144.253c0 13.545 10.98 24.525 24.525 24.525s24.525-10.98 24.525-24.525v-144.253h10.59v144.253c0 13.545 10.98 24.525 24.525 24.525s24.525-10.98 24.525-24.525v-144.253h15.869c7.031 0 12.394-6.342 11.187-13.306l-23.295-136.381c15.637 43.849 34.318 94.96 34.569 95.647 2.234 6.11 7.081 10.5 12.814 12.389v23.657h-3.574c-5.17 0-9.361 4.191-9.361 9.361v98.278c0 5.17 4.191 9.361 9.361 9.361h25.148c5.17 0 9.361-4.191 9.361-9.361v-98.278c-.001-5.169-4.192-9.361-9.362-9.361z"/></g></svg>