<svg id="Layer_1" enable-background="new 0 0 512 512" height="40" viewBox="0 0 512 512"  xmlns="http://www.w3.org/2000/svg"><path clip-rule="evenodd" d="m256 16c132.548 0 240 107.452 240 240s-107.452 240-240 240-240-107.452-240-240 107.451-240 240-240zm134.884 163.244-131.364 75.982c-2.076 1.238-4.741 1.344-6.958.05l-131.448-76.015v155.625c0 9.287 7.575 16.857 16.862 16.857h236.045c9.287 0 16.863-7.57 16.863-16.857zm-252.907-18.986c-4.966 0-9.455 2.177-12.541 5.622l130.578 75.51 130.55-75.521c-3.086-3.439-7.576-5.611-12.542-5.611z" fill="#8EC641" fill-rule="evenodd"/></svg>